<?xml version="1.0" standalone="no"?>
<!DOCTYPE svg PUBLIC "-//W3C//DTD SVG 20010904//EN"
 "http://www.w3.org/TR/2001/REC-SVG-20010904/DTD/svg10.dtd">
<svg version="1.0" xmlns="http://www.w3.org/2000/svg"
 width="2000.000000pt" height="1500.000000pt" viewBox="0 0 2000.000000 1500.000000"
 preserveAspectRatio="xMidYMid meet">

<g transform="translate(0.000000,1500.000000) scale(0.100000,-0.100000)"
fill="#000000" stroke="none">
<path d="M0 7500 l0 -7500 10000 0 10000 0 0 7500 0 7500 -10000 0 -10000 0 0
-7500z m9010 4612 c456 -63 861 -187 1261 -387 l126 -63 114 58 c238 121 486
200 754 242 199 30 513 30 710 0 698 -108 1291 -482 1669 -1052 133 -200 215
-367 286 -583 l31 -93 61 -13 c107 -22 290 -78 408 -126 674 -271 1198 -805
1471 -1499 21 -55 39 -103 39 -108 0 -4 -152 -8 -337 -8 l-338 0 -37 73 c-189
368 -523 691 -900 872 -227 109 -456 168 -730 188 l-163 12 -42 199 c-52 242
-87 354 -163 511 -242 500 -688 842 -1260 967 -92 19 -134 22 -340 23 -207 0
-249 -3 -349 -23 -258 -52 -439 -133 -690 -309 -150 -105 -167 -114 -185 -102
-255 160 -481 284 -653 355 -620 258 -1326 313 -1987 155 -634 -152 -1205
-500 -1608 -981 -170 -203 -337 -491 -427 -739 -120 -328 -164 -705 -118
-1016 22 -154 22 -152 -13 -170 -25 -13 -102 -15 -587 -13 l-558 3 115 115
c63 64 165 153 226 198 l111 83 6 142 c28 649 259 1251 685 1787 102 128 381
406 517 514 219 175 510 354 762 469 405 185 816 292 1308 341 22 2 184 2 360
1 252 -2 351 -7 465 -23z m-4316 -5634 c33 -94 114 -251 179 -346 289 -424
751 -686 1253 -709 315 -14 580 63 948 276 50 29 93 53 96 54 4 1 65 -46 136
-104 222 -183 388 -291 632 -413 403 -202 833 -327 1342 -391 166 -21 770 -33
770 -15 0 6 -9 46 -20 89 -43 171 -62 320 -67 548 -9 363 29 619 139 941 l42
122 333 0 c183 0 333 -2 333 -4 0 -1 -21 -48 -46 -102 -92 -196 -158 -433
-185 -658 -15 -125 -6 -442 15 -554 40 -216 106 -402 232 -657 88 -177 166
-286 319 -444 176 -181 344 -306 553 -410 295 -149 541 -210 878 -218 296 -8
529 29 781 123 503 188 929 583 1154 1070 127 275 188 558 189 871 0 333 -58
607 -186 882 -24 52 -43 96 -41 98 2 2 315 2 696 1 l692 -3 -45 -91 c-105
-217 -240 -415 -420 -617 l-69 -78 -2 -217 c-3 -315 -46 -569 -144 -855 -82
-236 -168 -408 -312 -622 -414 -615 -1044 -1018 -1794 -1147 -113 -19 -167
-22 -410 -23 -293 0 -357 6 -577 51 -672 140 -1308 574 -1691 1155 l-72 110
-65 -5 c-191 -17 -464 -27 -605 -21 -941 36 -1740 279 -2422 736 l-132 88 -55
-24 c-148 -65 -367 -130 -551 -162 -143 -24 -498 -25 -655 0 -473 74 -875 271
-1214 597 -235 226 -433 520 -554 826 -40 98 -92 265 -92 291 0 10 70 13 348
13 l347 0 19 -52z m8554 18 c41 -47 55 -95 50 -176 -3 -57 -9 -77 -33 -112
-40 -57 -102 -88 -175 -88 -48 0 -71 8 -173 60 -77 39 -130 60 -153 60 l-34 0
0 -219 0 -218 116 -37 c64 -21 166 -63 228 -94 94 -48 124 -69 196 -142 131
-130 174 -238 173 -435 0 -285 -146 -515 -410 -649 -52 -26 -193 -69 -265 -81
l-38 -6 0 -93 c0 -109 -12 -129 -80 -129 -65 0 -79 20 -82 121 l-3 86 -130 17
c-170 22 -281 51 -380 99 -139 66 -199 145 -199 260 0 153 128 290 247 264 18
-3 84 -28 147 -54 132 -56 206 -78 270 -82 l45 -3 3 242 2 241 -52 18 c-315
104 -513 233 -586 385 -114 234 -25 590 188 758 l52 41 523 0 523 0 30 -34z"/>
<path d="M12515 6224 c-76 -39 -110 -106 -103 -204 5 -68 32 -106 100 -141 70
-36 68 -41 68 171 0 211 1 208 -65 174z"/>
<path d="M12760 5070 l0 -220 30 0 c37 0 93 48 122 104 45 88 21 231 -49 286
-24 18 -86 50 -99 50 -2 0 -4 -99 -4 -220z"/>
</g>
</svg>
